<?xml version="1.0" encoding="UTF-8" standalone="no"?>
<!-- Created with Inkscape (http://www.inkscape.org/) -->

<svg
   version="1.1"
   id="svg9"
   width="400"
   height="400"
   viewBox="0 0 128 128"
   sodipodi:docname="image.svg"
   inkscape:version="1.2.1 (9c6d41e410, 2022-07-14)"
   xmlns:inkscape="http://www.inkscape.org/namespaces/inkscape"
   xmlns:sodipodi="http://sodipodi.sourceforge.net/DTD/sodipodi-0.dtd"
   xmlns="http://www.w3.org/2000/svg"
   xmlns:svg="http://www.w3.org/2000/svg">
  <defs
     id="defs13" />
  <sodipodi:namedview
     id="namedview11"
     pagecolor="#ffffff"
     bordercolor="#000000"
     borderopacity="0.25"
     inkscape:showpageshadow="2"
     inkscape:pageopacity="0.0"
     inkscape:pagecheckerboard="0"
     inkscape:deskcolor="#d1d1d1"
     showgrid="false"
     inkscape:zoom="4.3365533"
     inkscape:cx="23.866881"
     inkscape:cy="87.627194"
     inkscape:window-width="1920"
     inkscape:window-height="1001"
     inkscape:window-x="-9"
     inkscape:window-y="-9"
     inkscape:window-maximized="1"
     inkscape:current-layer="g15" />
  <g
     inkscape:groupmode="layer"
     inkscape:label="Image"
     id="g15">
    <path
       style="fill:#000000;stroke-width:0.32"
       d="M 64.711203,124.30186 C 64.320042,124.02788 64,123.59588 64,123.34186 c 0,-0.60966 0.84025,-0.59548 1.075722,0.0181 0.28216,0.7353 2.340739,0.63139 2.75302,-0.13896 0.53305,-0.99602 0.423735,-1.37305 -0.287705,-0.9923 -0.981642,0.52536 -1.835955,0.39095 -2.803194,-0.44103 C 63.969283,121.12662 63.84,120.77705 63.84,119.36 c 0,-1.41705 0.129283,-1.76662 0.897843,-2.42771 0.967239,-0.83198 1.821552,-0.96639 2.803194,-0.44103 0.426665,0.22834 0.618963,0.22834 0.618963,0 0,-0.18219 0.216,-0.33126 0.48,-0.33126 0.397696,0 0.48,0.60606 0.48,3.53454 0,3.32606 -0.04633,3.58088 -0.785456,4.32 -0.918566,0.91857 -2.538685,1.04704 -3.623341,0.28732 z m 2.945939,-3.20472 c 0.6597,-0.6597 0.644007,-2.65078 -0.02675,-3.39194 -0.604982,-0.6685 -1.720902,-0.7667 -2.286403,-0.2012 -0.2112,0.2112 -0.384,1.0464 -0.384,1.856 0,0.8096 0.1728,1.6448 0.384,1.856 0.53848,0.53848 1.716327,0.47796 2.313143,-0.11886 z M 48.96,121.92 c 0,-0.42667 0.213334,-0.64 0.64,-0.64 0.426666,0 0.64,0.21333 0.64,0.64 0,0.42667 -0.213334,0.64 -0.64,0.64 -0.426666,0 -0.64,-0.21333 -0.64,-0.64 z m 3.306182,-0.18473 c -0.64374,-0.64374 -0.73919,-0.90708 -0.43494,-1.2 0.300518,-0.28933 0.50166,-0.21038 0.878304,0.34473 0.564288,0.83168 2.041398,0.97387 2.638822,0.25402 0.526666,-0.6346 0.202234,-1.04352 -1.032038,-1.30081 -1.56576,-0.3264 -2.47633,-1.02594 -2.47633,-1.90244 0,-0.91602 1.081242,-1.77077 2.24,-1.77077 0.983635,0 2.24,0.81784 2.24,1.45814 0,0.62046 -0.842173,0.59047 -1.083565,-0.0386 -0.265005,-0.69059 -2.233705,-0.49763 -2.371894,0.23248 -0.07547,0.39876 0.339536,0.66001 1.656749,1.04294 1.196835,0.34793 1.821948,0.71412 1.959644,1.14796 0.697268,2.1969 -2.454684,3.4924 -4.214752,1.73233 z m 7.21674,-0.0553 C 58.717008,119.70483 57.6,116.5496 57.6,116.36128 c 0,-0.1107 0.204259,-0.20128 0.45391,-0.20128 0.277031,0 0.730164,0.8417 1.162839,2.16 0.389913,1.188 0.784377,2.29101 0.876585,2.45115 0.09221,0.16013 0.558669,-0.77587 1.036573,-2.08 0.535671,-1.46177 1.069703,-2.41105 1.392455,-2.47518 0.431481,-0.0857 0.326083,0.44146 -0.599408,2.99817 -0.617626,1.70621 -1.122954,3.15703 -1.122954,3.22403 0,0.067 -0.219565,0.12183 -0.48792,0.12183 -0.268355,0 -0.641478,-0.396 -0.829158,-0.88 z M 59.36,107.01102 C 46.834224,105.22077 38.131514,101.02167 30.647265,93.157011 23.438376,85.581702 19.842574,76.783462 19.842574,66.72 c 0,-10.063462 3.595802,-18.861702 10.804691,-26.437011 C 37.19183,33.40577 45.55359,28.934182 55.52,26.981887 c 4.03385,-0.790181 13.88615,-0.790181 17.92,0 16.457555,3.223829 29.65671,14.292507 34.0657,28.567147 2.11042,6.832736 2.11042,15.509196 0,22.341932 -3.03601,9.829469 -10.817854,18.821415 -20.758138,23.986114 -6.771204,3.51813 -12.654608,4.96149 -20.987562,5.14884 -2.992,0.0673 -5.872,0.0606 -6.4,-0.0149 z m 13.28,-3.49571 c 9.075613,-1.758 17.102163,-6.025988 23.169734,-12.320132 4.770446,-4.94858 7.623326,-9.992132 9.396316,-16.611572 0.70814,-2.64382 0.82058,-3.721318 0.82058,-7.863606 0,-5.344102 -0.62855,-8.494835 -2.67565,-13.412173 C 99.356384,43.712371 89.608589,35.100058 78.72,31.54601 73.324029,29.78476 70.284365,29.306773 64.48,29.306773 c -5.804365,0 -8.844029,0.477987 -14.24,2.239237 -10.888589,3.554048 -20.636385,12.166361 -24.630983,21.761817 -2.047093,4.917338 -2.675645,8.068071 -2.675645,13.412173 0,4.142288 0.112438,5.219786 0.820576,7.863606 1.772995,6.61944 4.625875,11.662992 9.396318,16.611572 6.917916,7.17624 16.015689,11.529682 27.009734,12.924622 2.210192,0.28043 9.812653,-0.0878 12.48,-0.60449 z M 59.04,82.930662 c -0.528,-0.322819 -1.161312,-0.830716 -1.407363,-1.128659 -0.246048,-0.297942 -1.148349,-1.128614 -2.005114,-1.845939 l -1.55775,-1.304224 -1.093536,0.83408 C 52.374794,79.944666 51.734106,80.32 51.552486,80.32 c -0.181619,0 -0.837593,0.445485 -1.457721,0.989965 -0.695987,0.611081 -1.609578,1.054621 -2.387095,1.158909 -1.805248,0.242134 -2.888739,-0.654823 -4.37431,-3.621226 l -1.223818,-2.443722 -1.73776,0.179354 c -2.075196,0.214179 -3.48255,1.337146 -3.634755,2.900278 C 36.663923,80.234323 36.482208,80.48 36,80.48 c -0.519421,0 -0.658,-0.245178 -0.735533,-1.301341 -0.08235,-1.121705 0.07226,-1.489229 1.12,-2.662451 1.189911,-1.332413 1.267885,-1.364986 3.699008,-1.545107 2.985331,-0.221187 3.349984,0.0105 4.811223,3.056713 0.534995,1.115296 1.314038,2.251453 1.731203,2.524791 0.718707,0.470915 0.847181,0.435894 2.449712,-0.667811 C 50.005786,79.244157 50.879578,78.72 51.01737,78.72 c 0.137792,0 0.795977,-0.432 1.46263,-0.96 0.666653,-0.528 1.46287,-0.96 1.769366,-0.96 0.3065,0 1.761994,1.093731 3.234436,2.430515 2.107283,1.913139 2.937936,2.465491 3.902208,2.594829 1.136931,0.152493 1.302278,0.06679 2.298867,-1.191504 1.531289,-1.933408 3.387597,-3.19384 4.703747,-3.19384 0.817635,0 1.474822,0.329238 2.611411,1.308275 1.547834,1.333271 5.137616,3.14656 6.261351,3.162765 0.831305,0.012 4.494086,-2.18911 6.190854,-3.720304 0.758643,-0.684618 1.821734,-2.153702 2.395786,-3.310736 1.02592,-2.067795 1.964969,-2.779674 2.348454,-1.78033 0.35073,0.913991 -1.75904,4.561892 -3.624342,6.266672 C 81.967702,81.746653 78.817533,83.52 77.193597,83.52 c -1.648627,0 -5.478154,-1.760451 -7.390752,-3.397565 -1.198416,-1.025801 -1.44993,-1.12176 -2.063789,-0.787411 C 66.624794,79.941923 66.144048,80.382966 64.834176,82 63.628864,83.487952 63.564922,83.519974 61.801453,83.518803 60.618298,83.518163 59.670509,83.316157 59.04,82.930662 Z M 75.453235,56.662755 C 72.317651,55.648656 70.848915,52.726838 72.28823,50.366474 73.33783,48.64521 75.030742,47.84 77.6,47.84 c 1.806698,0 2.478502,0.148266 3.472966,0.766474 3.171687,1.97168 3.205524,5.441472 0.07195,7.378128 -1.282857,0.792851 -4.245561,1.145849 -5.691681,0.678153 z m -29.12,-1.28 C 43.197651,54.368656 41.728915,51.446838 43.16823,49.086474 44.21783,47.36521 45.910742,46.56 48.48,46.56 c 1.806698,0 2.478502,0.148266 3.472966,0.766474 3.171687,1.97168 3.205524,5.441472 0.07195,7.378128 -1.282857,0.792851 -4.245561,1.145849 -5.691681,0.678153 z"
       id="path285" />
  </g>
</svg>
